<?xml version="1.0" encoding="UTF-8"?>
<svg width="128" height="128" viewBox="0 0 128 128" xmlns="http://www.w3.org/2000/svg">
  <!-- Background rounded square (WhiteSur style) -->
  <rect x="8" y="8" width="112" height="112" rx="28" ry="28" fill="#34C759" opacity="0.95"/>
  
  <!-- CPU/Activity bars -->
  <g fill="#FFFFFF" opacity="0.9">
    <rect x="30" y="70" width="8" height="30" rx="2" ry="2"/>
    <rect x="42" y="55" width="8" height="45" rx="2" ry="2"/>
    <rect x="54" y="45" width="8" height="55" rx="2" ry="2"/>
    <rect x="66" y="60" width="8" height="40" rx="2" ry="2"/>
    <rect x="78" y="50" width="8" height="50" rx="2" ry="2"/>
    <rect x="90" y="65" width="8" height="35" rx="2" ry="2"/>
  </g>
  
  <!-- Graph line overlay -->
  <path d="M 25 75 L 35 65 L 45 55 L 55 45 L 65 60 L 75 50 L 85 65 L 95 70 L 103 65" 
        stroke="#FFFFFF" stroke-width="3" fill="none" stroke-linecap="round" 
        stroke-linejoin="round" opacity="0.7"/>
  
  <!-- Circular indicator -->
  <circle cx="90" cy="35" r="15" fill="#FFFFFF" opacity="0.2"/>
  <circle cx="90" cy="35" r="12" fill="none" stroke="#FFFFFF" stroke-width="3" 
          stroke-dasharray="60 20" opacity="0.9"/>
  <circle cx="90" cy="35" r="5" fill="#FFFFFF" opacity="0.9"/>
</svg>
